<svg width="208" height="174" viewBox="0 0 208 174" fill="none" xmlns="http://www.w3.org/2000/svg">
<mask id="mask0_107_528" style="mask-type:luminance" maskUnits="userSpaceOnUse" x="0" y="0" width="208" height="174">
<path d="M207.41 0H0V174H207.41V0Z" fill="white"/>
</mask>
<g mask="url(#mask0_107_528)">
<path d="M196.866 112.574C191.706 107.421 185.103 103.959 177.932 102.644C170.759 101.33 163.357 102.226 156.706 105.214C156.91 100.264 156.086 95.3245 154.286 90.7083C152.487 86.0921 149.749 81.8992 146.249 78.3937H146.232L163.198 61.428C166.553 58.0911 169.218 54.1249 171.038 49.7567C172.859 45.3886 173.799 40.7042 173.806 35.972C173.813 31.2398 172.886 26.5526 171.08 22.179C169.272 17.8054 166.62 13.8313 163.274 10.4843C159.929 7.13733 155.956 4.48321 151.583 2.67401C147.21 0.864802 142.524 -0.0639514 137.792 -0.0590628C133.059 -0.0541742 128.374 0.884268 124.006 2.70251C119.637 4.52075 115.669 7.18304 112.331 10.537C108.377 14.4754 105.411 19.2927 103.675 24.5958C101.923 19.4717 99.0364 14.8093 95.2312 10.9563C91.426 7.10328 86.7996 4.15912 81.6979 2.34339C76.5961 0.527656 71.1501 -0.112793 65.7662 0.469809C60.3824 1.05241 55.1995 2.84303 50.6042 5.70811C46.0088 8.5732 42.1196 12.4388 39.2267 17.0166C36.3337 21.5944 34.5117 26.7664 33.8964 32.1466C33.2811 37.5269 33.8884 42.9766 35.6731 48.0894C37.4578 53.2022 40.3738 57.846 44.2037 61.6747L61.1719 78.6547L61.1583 78.647C57.7173 82.0871 55.0129 86.1921 53.21 90.7109C51.4071 95.2305 50.5434 100.07 50.6716 104.933C44.6857 102.254 38.0814 101.263 31.5727 102.065C25.064 102.868 18.8985 105.434 13.7427 109.487C8.58688 113.54 4.63706 118.925 2.32013 125.06C0.00320502 131.195 -0.592639 137.847 0.59701 144.296C1.78666 150.745 4.71654 156.746 9.06994 161.652C13.4233 166.556 19.0345 170.177 25.2969 172.124C31.5594 174.071 38.2349 174.269 44.6016 172.696C50.9683 171.124 56.7841 167.841 61.4202 163.202L78.1409 146.507C84.8894 153.255 94.0422 157.045 103.585 157.045C113.127 157.045 122.28 153.255 129.029 146.507L145.971 163.457C152.722 170.187 161.868 173.962 171.401 173.954C180.933 173.948 190.073 170.159 196.814 163.419C203.556 156.679 207.347 147.54 207.357 138.008C207.366 128.475 203.593 119.329 196.866 112.576V112.574ZM120.8 19.0126C125.301 14.5176 131.402 11.9928 137.762 11.9928C144.123 11.9928 150.224 14.5176 154.724 19.0126V19.0321C156.951 21.2592 158.718 23.9031 159.923 26.813C161.129 29.723 161.749 32.8418 161.749 35.9914C161.749 39.1411 161.129 42.2599 159.923 45.1697C158.718 48.0796 156.951 50.7236 154.724 52.9507L137.764 69.9113L120.8 52.9507C116.301 48.4498 113.773 42.346 113.773 35.9817C113.773 29.6173 116.301 23.5135 120.8 19.0126ZM52.9539 154.733C49.5986 158.09 45.3234 160.375 40.6688 161.302C36.0142 162.229 31.1894 161.753 26.8046 159.938C22.4198 158.122 18.672 155.047 16.0351 151.1C13.3983 147.155 11.9909 142.516 11.9909 137.77C11.9909 133.024 13.3983 128.385 16.0351 124.439C18.672 120.493 22.4198 117.417 26.8046 115.601C31.1894 113.786 36.0142 113.311 40.6688 114.238C45.3234 115.164 49.5986 117.451 52.9539 120.807L69.6441 138.01L52.9539 154.733ZM69.8907 120.797L67.0602 117.958C63.7861 113.34 62.2497 107.714 62.7225 102.073C63.1953 96.4322 65.647 91.1405 69.6441 87.132C74.0967 91.5872 76.6184 97.6153 76.6645 103.914C76.7107 110.213 74.2776 116.277 69.8907 120.797ZM69.6543 70.1588L52.6869 53.1948C49.3329 49.8406 47.0487 45.5671 46.1234 40.9147C45.198 36.2623 45.673 31.4401 47.4883 27.0577C49.3036 22.6753 52.3777 18.9296 56.3218 16.2943C60.2658 13.6591 64.9027 12.2524 69.6462 12.2524C74.3897 12.2524 79.0266 13.6591 82.9707 16.2943C86.9149 18.9296 89.9887 22.6753 91.804 27.0577C93.6193 31.4401 94.0947 36.2623 93.1693 40.9147C92.2438 45.5671 89.9599 49.8406 86.6056 53.1948L69.6543 70.1588ZM86.8895 137.769C91.404 133.383 97.4626 130.95 103.757 130.994C110.051 131.038 116.075 133.556 120.528 138.004C116.013 142.39 109.954 144.824 103.66 144.78C97.366 144.736 91.3421 142.217 86.8895 137.769ZM129.283 78.3937C125.941 81.7349 123.29 85.7014 121.481 90.0676C119.672 94.433 118.742 99.1128 118.742 103.838C118.742 108.564 119.672 113.244 121.481 117.609C123.29 121.975 125.941 125.942 129.283 129.283C122.532 122.536 113.378 118.745 103.834 118.745C94.2896 118.745 85.136 122.536 78.385 129.283L78.3774 129.275C85.0148 122.506 88.7141 113.391 88.6692 103.911C88.6251 94.4313 84.842 85.3514 78.1409 78.6454L95.0846 61.6747C99.0347 57.739 102.003 52.929 103.751 47.6336C105.514 52.8307 108.45 57.5516 112.333 61.4297L129.283 78.392V78.3937ZM137.758 86.8684C142.253 91.3694 144.777 97.4712 144.777 103.832C144.777 110.194 142.253 116.295 137.758 120.796V120.806C133.264 116.301 130.741 110.199 130.742 103.837C130.742 97.4754 133.266 91.3728 137.759 86.8693L137.758 86.8684ZM188.39 154.982C186.163 157.21 183.52 158.978 180.61 160.184C177.699 161.389 174.58 162.01 171.431 162.01C168.28 162.01 165.161 161.389 162.251 160.184C159.34 158.978 156.697 157.21 154.47 154.982L137.509 138.018L154.469 121.049V121.041C158.97 116.543 165.074 114.017 171.436 114.019C177.8 114.021 183.902 116.55 188.4 121.051C192.898 125.552 195.424 131.655 195.423 138.019C195.421 144.382 192.891 150.484 188.39 154.982Z" fill="#71D99B"/>
</g>
</svg>
